<svg width="570" height="40" viewBox="0 0 570 40" fill="none" xmlns="http://www.w3.org/2000/svg">
<path d="M0.840915 11.0236C0.634374 10.6937 0.442587 10.2437 0.265552 9.67379C0.0885173 9.10386 0 8.50394 0 7.87402C0 6.70416 0.250799 5.86427 0.752398 5.35433C1.2835 4.84439 1.96213 4.58943 2.7883 4.58943H22.0851C22.2916 4.91938 22.4834 5.36933 22.6604 5.93926C22.8375 6.50919 22.926 7.10911 22.926 7.73903C22.926 8.90889 22.6604 9.74878 22.1293 10.2587C21.6277 10.7687 20.9639 11.0236 20.1377 11.0236H15.225V31.811C14.9004 31.901 14.3841 31.991 13.6759 32.081C12.9973 32.171 12.3187 32.216 11.64 32.216C10.9614 32.216 10.3565 32.156 9.82543 32.036C9.32383 31.946 8.89599 31.766 8.54193 31.4961C8.18786 31.2261 7.9223 30.8511 7.74527 30.3712C7.56823 29.8913 7.47972 29.2613 7.47972 28.4814V11.0236H0.840915Z" fill="#3077C6"/>
<path d="M31.8497 31.946C31.5546 32.036 31.0825 32.126 30.4334 32.216C29.8138 32.306 29.1646 32.351 28.486 32.351C27.8369 32.351 27.2468 32.306 26.7156 32.216C26.214 32.126 25.7862 31.946 25.4321 31.676C25.0781 31.4061 24.7978 31.0461 24.5912 30.5962C24.4142 30.1162 24.3257 29.5013 24.3257 28.7514V15.2531C24.3257 14.5632 24.4437 13.9783 24.6797 13.4983C24.9453 12.9884 25.3141 12.5384 25.7862 12.1485C26.2583 11.7585 26.8337 11.4136 27.5123 11.1136C28.2204 10.7837 28.9728 10.4987 29.7695 10.2587C30.5662 10.0187 31.3923 9.83877 32.248 9.71878C33.1036 9.5688 33.9593 9.49381 34.815 9.49381C36.2313 9.49381 37.3525 9.77878 38.1786 10.3487C39.0048 10.8886 39.4179 11.7885 39.4179 13.0484C39.4179 13.4683 39.3589 13.8883 39.2409 14.3082C39.1228 14.6982 38.9753 15.0581 38.7983 15.3881C38.1786 15.3881 37.5443 15.4181 36.8951 15.4781C36.246 15.5381 35.6116 15.628 34.992 15.748C34.3724 15.868 33.7823 16.003 33.2217 16.153C32.6906 16.273 32.2332 16.4229 31.8497 16.6029V31.946Z" fill="#3077C6"/>
<path d="M42.3448 4.04949C42.3448 2.90964 42.7137 1.94976 43.4513 1.16985C44.2185 0.389951 45.2217 0 46.4609 0C47.7001 0 48.6886 0.389951 49.4262 1.16985C50.1934 1.94976 50.577 2.90964 50.577 4.04949C50.577 5.18935 50.1934 6.14923 49.4262 6.92913C48.6886 7.70904 47.7001 8.09899 46.4609 8.09899C45.2217 8.09899 44.2185 7.70904 43.4513 6.92913C42.7137 6.14923 42.3448 5.18935 42.3448 4.04949ZM50.2229 31.946C49.8983 32.006 49.4115 32.081 48.7623 32.171C48.1427 32.291 47.5083 32.351 46.8592 32.351C46.2101 32.351 45.62 32.306 45.0889 32.216C44.5873 32.126 44.1594 31.946 43.8054 31.676C43.4513 31.4061 43.171 31.0461 42.9645 30.5962C42.7874 30.1162 42.6989 29.5013 42.6989 28.7514V10.4387C43.0235 10.3787 43.4956 10.3037 44.1152 10.2137C44.7643 10.0937 45.4134 10.0337 46.0626 10.0337C46.7117 10.0337 47.2871 10.0787 47.7887 10.1687C48.3198 10.2587 48.7623 10.4387 49.1164 10.7087C49.4705 10.9786 49.736 11.3536 49.9131 11.8335C50.1196 12.2835 50.2229 12.8834 50.2229 13.6333V31.946Z" fill="#3077C6"/>
<path d="M64.8825 9.44882C66.6529 9.44882 68.2905 9.68879 69.7952 10.1687C71.3296 10.6187 72.6426 11.3236 73.7343 12.2835C74.826 13.2433 75.6816 14.4582 76.3013 15.928C76.9209 17.3678 77.2307 19.0926 77.2307 21.1024C77.2307 23.0221 76.9652 24.7019 76.4341 26.1417C75.9029 27.5816 75.1505 28.7964 74.1769 29.7863C73.2032 30.7462 72.0229 31.4661 70.6362 31.946C69.2789 32.4259 67.7593 32.6659 66.0775 32.6659C64.8088 32.6659 63.6285 32.4709 62.5368 32.081V39.5501C62.2418 39.64 61.7697 39.73 61.1205 39.82C60.4714 39.94 59.8075 40 59.1289 40C58.4798 40 57.8897 39.955 57.3586 39.865C56.857 39.775 56.4291 39.5951 56.0751 39.3251C55.721 39.0551 55.4554 38.6802 55.2784 38.2002C55.1014 37.7503 55.0128 37.1504 55.0128 36.4004V14.8031C55.0128 13.9933 55.1751 13.3333 55.4997 12.8234C55.8538 12.3135 56.3259 11.8485 56.916 11.4286C57.8307 10.8286 58.9666 10.3487 60.3239 9.98875C61.6812 9.6288 63.2007 9.44882 64.8825 9.44882ZM64.9711 26.6367C68.0101 26.6367 69.5297 24.7919 69.5297 21.1024C69.5297 19.1826 69.1461 17.7578 68.379 16.8279C67.6413 15.898 66.5644 15.4331 65.1481 15.4331C64.5875 15.4331 64.0859 15.5081 63.6433 15.658C63.2007 15.778 62.8171 15.928 62.4926 16.108V26.0067C62.8466 26.1867 63.2302 26.3367 63.6433 26.4567C64.0564 26.5767 64.499 26.6367 64.9711 26.6367Z" fill="#3077C6"/>
<path d="M105.466 31.811C105.141 31.901 104.625 31.991 103.917 32.081C103.238 32.171 102.56 32.216 101.881 32.216C101.202 32.216 100.598 32.156 100.066 32.036C99.5649 31.946 99.137 31.766 98.783 31.4961C98.4289 31.2261 98.1633 30.8511 97.9863 30.3712C97.8093 29.8913 97.7207 29.2613 97.7207 28.4814V21.4623H89.2231V31.811C88.8985 31.901 88.3822 31.991 87.674 32.081C86.9954 32.171 86.3168 32.216 85.6381 32.216C84.9595 32.216 84.3546 32.156 83.8235 32.036C83.3219 31.946 82.8941 31.766 82.54 31.4961C82.1859 31.2261 81.9204 30.8511 81.7434 30.3712C81.5663 29.8913 81.4778 29.2613 81.4778 28.4814V4.72441C81.8024 4.66442 82.3187 4.58943 83.0269 4.49944C83.735 4.37945 84.4136 4.31946 85.0628 4.31946C85.7414 4.31946 86.3315 4.37945 86.8331 4.49944C87.3642 4.58943 87.8068 4.7694 88.1609 5.03937C88.5149 5.30934 88.7805 5.68429 88.9575 6.16423C89.1346 6.64417 89.2231 7.27409 89.2231 8.05399V15.2531H97.7207V4.72441C98.0453 4.66442 98.5617 4.58943 99.2698 4.49944C99.9779 4.37945 100.657 4.31946 101.306 4.31946C101.984 4.31946 102.574 4.37945 103.076 4.49944C103.607 4.58943 104.05 4.7694 104.404 5.03937C104.758 5.30934 105.023 5.68429 105.2 6.16423C105.377 6.64417 105.466 7.27409 105.466 8.05399V31.811Z" fill="#3077C6"/>
<path d="M132.901 21.0574C132.901 22.9171 132.621 24.5819 132.06 26.0517C131.499 27.4916 130.703 28.7064 129.67 29.6963C128.667 30.6862 127.457 31.4361 126.041 31.946C124.624 32.4559 123.046 32.7109 121.305 32.7109C119.564 32.7109 117.986 32.4409 116.569 31.901C115.153 31.3611 113.929 30.5962 112.896 29.6063C111.893 28.5864 111.111 27.3566 110.55 25.9168C109.99 24.4769 109.709 22.8571 109.709 21.0574C109.709 19.2876 109.99 17.6828 110.55 16.243C111.111 14.8031 111.893 13.5883 112.896 12.5984C113.929 11.5786 115.153 10.7986 116.569 10.2587C117.986 9.71878 119.564 9.44882 121.305 9.44882C123.046 9.44882 124.624 9.73378 126.041 10.3037C127.457 10.8436 128.667 11.6235 129.67 12.6434C130.703 13.6333 131.499 14.8481 132.06 16.288C132.621 17.7278 132.901 19.3176 132.901 21.0574ZM117.41 21.0574C117.41 22.8871 117.75 24.297 118.428 25.2868C119.136 26.2467 120.11 26.7267 121.349 26.7267C122.589 26.7267 123.533 26.2317 124.182 25.2418C124.861 24.252 125.2 22.8571 125.2 21.0574C125.2 19.2576 124.861 17.8778 124.182 16.9179C123.503 15.928 122.544 15.4331 121.305 15.4331C120.066 15.4331 119.107 15.928 118.428 16.9179C117.75 17.8778 117.41 19.2576 117.41 21.0574Z" fill="#3077C6"/>
<path d="M136.572 10.4387C136.867 10.3487 137.324 10.2587 137.944 10.1687C138.593 10.0787 139.257 10.0337 139.935 10.0337C140.584 10.0337 141.16 10.0787 141.661 10.1687C142.192 10.2587 142.635 10.4387 142.989 10.7087C143.343 10.9786 143.609 11.3536 143.786 11.8335C143.992 12.2835 144.096 12.8834 144.096 13.6333V23.3071C144.096 24.5369 144.391 25.4218 144.981 25.9618C145.571 26.4717 146.427 26.7267 147.548 26.7267C148.226 26.7267 148.772 26.6667 149.185 26.5467C149.628 26.4267 149.967 26.3067 150.203 26.1867V10.4387C150.498 10.3487 150.956 10.2587 151.575 10.1687C152.224 10.0787 152.888 10.0337 153.567 10.0337C154.216 10.0337 154.791 10.0787 155.293 10.1687C155.824 10.2587 156.267 10.4387 156.621 10.7087C156.975 10.9786 157.24 11.3536 157.417 11.8335C157.624 12.2835 157.727 12.8834 157.727 13.6333V27.3116C157.727 28.8114 157.108 29.9363 155.868 30.6862C154.836 31.3461 153.596 31.841 152.151 32.171C150.734 32.5309 149.185 32.7109 147.503 32.7109C145.91 32.7109 144.435 32.5309 143.078 32.171C141.75 31.811 140.599 31.2561 139.625 30.5062C138.652 29.7563 137.899 28.7964 137.368 27.6265C136.837 26.4267 136.572 24.9869 136.572 23.3071V10.4387Z" fill="#3077C6"/>
<path d="M180.478 25.4668C180.478 27.7465 179.637 29.5313 177.955 30.8211C176.273 32.111 173.794 32.7559 170.519 32.7559C169.28 32.7559 168.129 32.6659 167.067 32.4859C166.005 32.306 165.09 32.036 164.323 31.676C163.586 31.2861 162.995 30.8061 162.553 30.2362C162.14 29.6663 161.933 28.9914 161.933 28.2115C161.933 27.4916 162.081 26.8916 162.376 26.4117C162.671 25.9018 163.025 25.4818 163.438 25.1519C164.294 25.6318 165.267 26.0667 166.359 26.4567C167.48 26.8166 168.764 26.9966 170.21 26.9966C171.124 26.9966 171.818 26.8616 172.29 26.5917C172.791 26.3217 173.042 25.9618 173.042 25.5118C173.042 25.0919 172.865 24.7619 172.511 24.5219C172.157 24.282 171.567 24.087 170.741 23.937L169.413 23.667C166.846 23.1571 164.928 22.3622 163.659 21.2823C162.42 20.1725 161.8 18.5977 161.8 16.5579C161.8 15.4481 162.036 14.4432 162.509 13.5433C162.981 12.6434 163.645 11.8935 164.5 11.2936C165.356 10.6937 166.374 10.2287 167.554 9.89876C168.764 9.5688 170.092 9.40382 171.537 9.40382C172.629 9.40382 173.647 9.49381 174.591 9.67379C175.565 9.82377 176.406 10.0637 177.114 10.3937C177.822 10.7237 178.383 11.1586 178.796 11.6985C179.209 12.2085 179.415 12.8234 179.415 13.5433C179.415 14.2332 179.283 14.8331 179.017 15.3431C178.781 15.823 178.471 16.228 178.088 16.5579C177.852 16.4079 177.497 16.258 177.025 16.108C176.553 15.928 176.037 15.778 175.476 15.658C174.916 15.5081 174.34 15.3881 173.75 15.2981C173.19 15.2081 172.673 15.1631 172.201 15.1631C171.227 15.1631 170.475 15.2831 169.944 15.5231C169.413 15.733 169.147 16.078 169.147 16.5579C169.147 16.8879 169.295 17.1579 169.59 17.3678C169.885 17.5778 170.446 17.7728 171.272 17.9528L172.644 18.2677C175.476 18.9276 177.483 19.8425 178.663 21.0124C179.873 22.1522 180.478 23.637 180.478 25.4668Z" fill="#3077C6"/>
<path d="M195.706 32.7109C193.965 32.7109 192.342 32.4709 190.837 31.991C189.362 31.4811 188.064 30.7312 186.942 29.7413C185.851 28.7514 184.98 27.5066 184.331 26.0067C183.712 24.5069 183.402 22.7522 183.402 20.7424C183.402 18.7627 183.712 17.0679 184.331 15.658C184.98 14.2182 185.821 13.0484 186.854 12.1485C187.887 11.2186 189.067 10.5437 190.395 10.1237C191.722 9.67379 193.08 9.44882 194.466 9.44882C196.03 9.44882 197.447 9.68879 198.715 10.1687C200.014 10.6487 201.12 11.3086 202.035 12.1485C202.979 12.9884 203.702 13.9933 204.203 15.1631C204.734 16.333 205 17.6078 205 18.9876C205 20.0075 204.72 20.7874 204.159 21.3273C203.598 21.8673 202.817 22.2122 201.813 22.3622L190.881 24.027C191.206 25.0169 191.87 25.7668 192.873 26.2767C193.876 26.7567 195.027 26.9966 196.325 26.9966C197.535 26.9966 198.671 26.8466 199.733 26.5467C200.825 26.2167 201.71 25.8418 202.389 25.4218C202.861 25.7218 203.259 26.1417 203.584 26.6817C203.908 27.2216 204.071 27.7915 204.071 28.3915C204.071 29.7413 203.451 30.7462 202.212 31.4061C201.268 31.916 200.205 32.261 199.025 32.4409C197.845 32.6209 196.738 32.7109 195.706 32.7109ZM194.466 15.0281C193.758 15.0281 193.139 15.1481 192.608 15.3881C192.106 15.628 191.693 15.943 191.368 16.333C191.044 16.6929 190.793 17.1129 190.616 17.5928C190.468 18.0427 190.38 18.5077 190.35 18.9876L197.919 17.7278C197.83 17.1279 197.506 16.5279 196.945 15.928C196.384 15.3281 195.558 15.0281 194.466 15.0281Z" fill="#3077C6"/>
<path d="M240.61 19.6101V13.3899H234.39L230 9L225.61 13.3899H219.39V19.6101L215 24L219.39 28.3899V34.6101H225.61L230 39L234.39 34.6101H240.61V28.3899L245 24L240.61 19.6101ZM230 31.9576C228.82 31.9576 227.692 31.6923 226.684 31.2281C229.416 29.9682 231.326 27.2096 231.326 24C231.326 20.7905 229.416 18.0318 226.684 16.7719C227.692 16.3077 228.82 16.0424 230 16.0424C234.39 16.0424 237.958 19.6101 237.958 24C237.958 28.3899 234.39 31.9576 230 31.9576Z" fill="white"/>
<path d="M275 0C263.96 0 255 8.96 255 20C255 31.04 263.96 40 275 40C286.04 40 295 31.04 295 20C295 8.96 286.04 0 275 0ZM275 6C278.32 6 281 8.68 281 12C281 15.32 278.32 18 275 18C271.68 18 269 15.32 269 12C269 8.68 271.68 6 275 6ZM275 34.4C270 34.4 265.58 31.84 263 27.96C263.06 23.98 271 21.8 275 21.8C278.98 21.8 286.94 23.98 287 27.96C284.42 31.84 280 34.4 275 34.4Z" fill="white"/>
<path d="M560.135 0.00013H459.535C459.168 0.00013 458.806 0.00013 458.44 0.00212999C458.134 0.00412999 457.83 0.00993997 457.521 0.01483C456.85 0.0227317 456.18 0.081806 455.517 0.191539C454.856 0.303662 454.215 0.515044 453.616 0.818537C453.018 1.1246 452.472 1.52229 451.998 1.99719C451.52 2.47076 451.122 3.01814 450.819 3.61828C450.515 4.21723 450.305 4.85905 450.194 5.52159C450.083 6.1833 450.023 6.85263 450.015 7.52359C450.006 7.83018 450.005 8.1378 450 8.44444V31.5586C450.005 31.8691 450.006 32.1699 450.015 32.4805C450.023 33.1514 450.083 33.8207 450.194 34.4824C450.304 35.1453 450.515 35.7875 450.819 36.3867C451.122 36.9849 451.52 37.5301 451.998 38.001C452.471 38.478 453.017 38.876 453.616 39.1797C454.215 39.484 454.855 39.6967 455.517 39.8105C456.18 39.9194 456.85 39.9785 457.521 39.9873C457.83 39.9941 458.134 39.998 458.44 39.998C458.806 40 459.168 40 459.535 40H560.135C560.494 40 560.859 40 561.219 39.998C561.523 39.998 561.836 39.9941 562.141 39.9873C562.811 39.9789 563.479 39.9198 564.141 39.8105C564.804 39.6958 565.448 39.4833 566.049 39.1797C566.647 38.8758 567.193 38.4779 567.666 38.001C568.142 37.5282 568.541 36.9835 568.848 36.3867C569.15 35.7871 569.358 35.145 569.467 34.4824C569.578 33.8207 569.64 33.1515 569.652 32.4805C569.656 32.1699 569.656 31.8691 569.656 31.5586C569.664 31.1953 569.664 30.834 569.664 30.4648V9.53623C569.664 9.17002 569.664 8.80674 569.656 8.44444C569.656 8.1378 569.656 7.83018 569.652 7.52355C569.64 6.85253 569.578 6.18335 569.467 5.52155C569.358 4.8594 569.149 4.21762 568.848 3.61824C568.23 2.41532 567.252 1.43615 566.049 0.818447C565.448 0.515696 564.804 0.304369 564.141 0.191449C563.48 0.0812325 562.811 0.0221377 562.141 0.01469C561.836 0.00980997 561.523 0.00394999 561.219 0.00199999C560.859 0 560.494 0 560.135 0V0.00013Z" fill="#A6A6A6"/>
<path d="M458.445 39.1252C458.14 39.1252 457.843 39.1213 457.541 39.1145C456.914 39.1063 456.29 39.0518 455.671 38.9514C455.095 38.8521 454.537 38.6674 454.015 38.4035C453.497 38.1417 453.026 37.7984 452.618 37.3869C452.204 36.9801 451.859 36.5084 451.597 35.9904C451.333 35.469 451.149 34.9101 451.054 34.3332C450.951 33.7133 450.896 33.0865 450.888 32.4582C450.881 32.2473 450.873 31.5451 450.873 31.5451V8.44457C450.873 8.44457 450.882 7.75316 450.888 7.55003C450.895 6.92271 450.951 6.29689 451.053 5.67796C451.149 5.09948 451.332 4.53898 451.597 4.01587C451.857 3.49818 452.2 3.0261 452.612 2.61792C453.023 2.20586 453.496 1.86085 454.014 1.59545C454.535 1.33234 455.092 1.14898 455.667 1.05151C456.288 0.95008 456.915 0.89524 457.543 0.887454L458.445 0.875244H561.214L562.127 0.887944C562.75 0.895343 563.371 0.949694 563.985 1.05053C564.566 1.14922 565.13 1.33386 565.656 1.59838C566.694 2.13323 567.539 2.9794 568.071 4.01831C568.332 4.53781 568.512 5.09374 568.606 5.66722C568.71 6.29122 568.768 6.92197 568.78 7.55443C568.783 7.83763 568.783 8.14183 568.783 8.44457C568.791 8.81957 568.791 9.1765 568.791 9.53635V30.465C568.791 30.8283 568.791 31.1828 568.783 31.5402C568.783 31.8654 568.783 32.1633 568.779 32.4699C568.768 33.091 568.71 33.7105 568.608 34.3234C568.515 34.9044 568.333 35.4677 568.068 35.9934C567.805 36.5058 567.462 36.9734 567.053 37.3791C566.644 37.7928 566.172 38.1381 565.653 38.4016C565.128 38.6676 564.566 38.8529 563.985 38.9514C563.367 39.0523 562.742 39.1068 562.116 39.1145C561.823 39.1213 561.517 39.1252 561.219 39.1252L560.135 39.1272L458.445 39.1252Z" fill="black"/>
<path d="M474.769 20.3006C474.78 19.4659 475.001 18.6476 475.413 17.9216C475.825 17.1956 476.414 16.5857 477.125 16.1485C476.674 15.5034 476.078 14.9724 475.385 14.5979C474.692 14.2233 473.921 14.0155 473.134 13.9908C471.455 13.8146 469.827 14.9957 468.971 14.9957C468.099 14.9957 466.782 14.0083 465.363 14.0375C464.445 14.0672 463.551 14.334 462.767 14.8121C461.983 15.2901 461.336 15.9631 460.89 16.7654C458.956 20.1138 460.399 25.0349 462.251 27.7415C463.178 29.0669 464.261 30.5474 465.679 30.4949C467.066 30.4373 467.584 29.6104 469.258 29.6104C470.917 29.6104 471.403 30.4949 472.849 30.4615C474.338 30.4373 475.275 29.1302 476.17 27.7923C476.836 26.848 477.348 25.8042 477.688 24.6998C476.823 24.3341 476.085 23.7219 475.566 22.9396C475.047 22.1573 474.77 21.2395 474.769 20.3006V20.3006Z" fill="white"/>
<path d="M472.037 12.2111C472.849 11.2369 473.249 9.98468 473.152 8.72046C471.912 8.85068 470.767 9.44323 469.944 10.3801C469.542 10.8377 469.234 11.3702 469.038 11.9469C468.842 12.5237 468.761 13.1335 468.8 13.7414C469.421 13.7478 470.034 13.6134 470.595 13.3483C471.155 13.0832 471.649 12.6944 472.037 12.2111Z" fill="white"/>
<path d="M492.302 27.1397H487.569L486.432 30.4962H484.427L488.911 18.0781H490.994L495.477 30.4962H493.438L492.302 27.1397ZM488.059 25.5909H491.811L489.961 20.1436H489.91L488.059 25.5909Z" fill="white"/>
<path d="M505.16 25.9697C505.16 28.7832 503.654 30.5908 501.381 30.5908C500.806 30.6209 500.233 30.4883 499.729 30.2082C499.226 29.928 498.811 29.5117 498.533 29.0068H498.49V33.4912H496.631V21.4423H498.43V22.9482H498.464C498.755 22.4457 499.177 22.0316 499.685 21.7497C500.192 21.4679 500.767 21.3289 501.347 21.3476C503.645 21.3476 505.16 23.164 505.16 25.9697ZM503.25 25.9697C503.25 24.1367 502.302 22.9316 500.857 22.9316C499.437 22.9316 498.482 24.1621 498.482 25.9697C498.482 27.7939 499.437 29.0156 500.857 29.0156C502.302 29.0156 503.25 27.8193 503.25 25.9697Z" fill="white"/>
<path d="M515.125 25.9697C515.125 28.7832 513.619 30.5908 511.346 30.5908C510.771 30.6209 510.198 30.4883 509.694 30.2082C509.19 29.928 508.776 29.5117 508.498 29.0068H508.455V33.4912H506.596V21.4423H508.395V22.9482H508.429C508.72 22.4457 509.142 22.0315 509.649 21.7497C510.157 21.4679 510.732 21.3289 511.312 21.3476C513.61 21.3476 515.125 23.164 515.125 25.9697ZM513.214 25.9697C513.214 24.1367 512.267 22.9316 510.822 22.9316C509.402 22.9316 508.447 24.1621 508.447 25.9697C508.447 27.7939 509.402 29.0156 510.822 29.0156C512.267 29.0156 513.214 27.8193 513.214 25.9697H513.214Z" fill="white"/>
<path d="M521.71 27.0362C521.848 28.2676 523.044 29.0761 524.679 29.0761C526.246 29.0761 527.373 28.2676 527.373 27.1572C527.373 26.1933 526.693 25.6162 525.083 25.2207L523.474 24.833C521.194 24.2822 520.135 23.2158 520.135 21.4853C520.135 19.3428 522.002 17.8711 524.654 17.8711C527.278 17.8711 529.077 19.3428 529.137 21.4853H527.261C527.149 20.2461 526.124 19.498 524.627 19.498C523.13 19.498 522.106 20.2549 522.106 21.3564C522.106 22.2344 522.76 22.751 524.361 23.1464L525.729 23.4824C528.277 24.0849 529.335 25.1084 529.335 26.9247C529.335 29.248 527.485 30.703 524.541 30.703C521.788 30.703 519.928 29.2822 519.808 27.0361L521.71 27.0362Z" fill="white"/>
<path d="M533.346 19.3V21.4426H535.068V22.9143H533.346V27.9055C533.346 28.6809 533.691 29.0422 534.448 29.0422C534.652 29.0387 534.856 29.0243 535.059 28.9992V30.4621C534.719 30.5257 534.373 30.5545 534.027 30.548C532.194 30.548 531.479 29.8596 531.479 28.1037V22.9143H530.163V21.4426H531.479V19.3H533.346Z" fill="white"/>
<path d="M536.065 25.97C536.065 23.1213 537.743 21.3313 540.359 21.3313C542.984 21.3313 544.654 23.1213 544.654 25.97C544.654 28.8264 542.993 30.6086 540.359 30.6086C537.726 30.6086 536.065 28.8264 536.065 25.97ZM542.76 25.97C542.76 24.0159 541.865 22.8625 540.359 22.8625C538.853 22.8625 537.959 24.0247 537.959 25.97C537.959 27.9319 538.853 29.0764 540.359 29.0764C541.865 29.0764 542.76 27.9319 542.76 25.97H542.76Z" fill="white"/>
<path d="M546.186 21.4425H547.959V22.9835H548.002C548.121 22.5022 548.403 22.0769 548.8 21.779C549.197 21.4811 549.684 21.3288 550.179 21.3478C550.393 21.347 550.607 21.3703 550.816 21.4171V23.1554C550.546 23.0728 550.264 23.0348 549.981 23.0431C549.711 23.0321 549.442 23.0797 549.192 23.1826C548.942 23.2855 548.718 23.4413 548.534 23.6391C548.35 23.837 548.211 24.0724 548.126 24.3291C548.042 24.5857 548.014 24.8576 548.044 25.1261V30.4963H546.186L546.186 21.4425Z" fill="white"/>
<path d="M559.384 27.8371C559.134 29.4806 557.534 30.6085 555.486 30.6085C552.852 30.6085 551.217 28.8439 551.217 26.0129C551.217 23.1731 552.861 21.3313 555.408 21.3313C557.913 21.3313 559.488 23.052 559.488 25.7971V26.4338H553.093V26.5461C553.064 26.8793 553.105 27.2149 553.216 27.5308C553.326 27.8466 553.502 28.1354 553.732 28.3779C553.963 28.6205 554.242 28.8112 554.552 28.9376C554.861 29.0639 555.195 29.1228 555.529 29.1105C555.968 29.1517 556.409 29.0499 556.785 28.8205C557.162 28.5911 557.455 28.2462 557.62 27.8371L559.384 27.8371ZM553.102 25.135H557.628C557.645 24.8354 557.6 24.5356 557.495 24.2544C557.39 23.9732 557.229 23.7166 557.02 23.5009C556.812 23.2851 556.561 23.1148 556.283 23.0005C556.006 22.8863 555.708 22.8307 555.408 22.8371C555.105 22.8353 554.805 22.8935 554.525 23.0082C554.245 23.123 553.99 23.292 553.776 23.5057C553.562 23.7193 553.392 23.9733 553.276 24.2529C553.16 24.5326 553.101 24.8323 553.102 25.135V25.135Z" fill="white"/>
<path d="M487.826 8.73114C488.216 8.70318 488.607 8.76204 488.971 8.90347C489.335 9.0449 489.663 9.26538 489.932 9.549C490.2 9.83262 490.403 10.1723 490.524 10.5436C490.645 10.9148 490.683 11.3084 490.634 11.6959C490.634 13.6022 489.604 14.6979 487.826 14.6979H485.671V8.73114H487.826ZM486.598 13.8541H487.723C488.001 13.8707 488.28 13.8251 488.538 13.7205C488.797 13.6158 489.029 13.4549 489.217 13.2493C489.406 13.0438 489.546 12.7988 489.628 12.5322C489.71 12.2655 489.731 11.984 489.69 11.7081C489.728 11.4333 489.705 11.1535 489.621 10.8888C489.538 10.6242 489.398 10.3812 489.21 10.1773C489.022 9.97333 488.791 9.81352 488.534 9.70928C488.277 9.60505 488 9.55897 487.723 9.57434H486.598V13.8541Z" fill="white"/>
<path d="M491.681 12.4443C491.652 12.1483 491.686 11.8498 491.78 11.5677C491.874 11.2856 492.026 11.0263 492.226 10.8063C492.426 10.5863 492.669 10.4106 492.941 10.2903C493.213 10.17 493.507 10.1079 493.804 10.1079C494.101 10.1079 494.395 10.17 494.667 10.2903C494.939 10.4106 495.183 10.5863 495.383 10.8063C495.583 11.0263 495.735 11.2856 495.828 11.5677C495.922 11.8498 495.956 12.1483 495.928 12.4443C495.957 12.7405 495.923 13.0394 495.83 13.322C495.736 13.6045 495.584 13.8643 495.384 14.0847C495.184 14.3051 494.94 14.4813 494.668 14.6018C494.396 14.7223 494.102 14.7846 493.804 14.7846C493.507 14.7846 493.212 14.7223 492.94 14.6018C492.668 14.4813 492.424 14.3051 492.224 14.0847C492.024 13.8643 491.872 13.6045 491.779 13.322C491.685 13.0394 491.652 12.7405 491.681 12.4443V12.4443ZM495.014 12.4443C495.014 11.4682 494.575 10.8974 493.806 10.8974C493.033 10.8974 492.599 11.4682 492.599 12.4443C492.599 13.4281 493.033 13.9945 493.806 13.9945C494.575 13.9945 495.014 13.4242 495.014 12.4443H495.014Z" fill="white"/>
<path d="M501.573 14.6978H500.651L499.721 11.3813H499.65L498.724 14.6978H497.811L496.569 10.1948H497.471L498.277 13.6308H498.344L499.27 10.1948H500.122L501.048 13.6308H501.118L501.921 10.1948H502.81L501.573 14.6978Z" fill="white"/>
<path d="M503.854 10.1949H504.709V10.9102H504.775C504.888 10.6533 505.078 10.4379 505.319 10.2941C505.56 10.1503 505.84 10.0852 506.119 10.1079C506.338 10.0915 506.558 10.1245 506.763 10.2046C506.967 10.2847 507.151 10.4098 507.301 10.5707C507.451 10.7315 507.562 10.924 507.628 11.1338C507.693 11.3436 507.71 11.5654 507.678 11.7828V14.6979H506.789V12.006C506.789 11.2823 506.475 10.9224 505.817 10.9224C505.669 10.9155 505.52 10.9408 505.382 10.9966C505.244 11.0525 505.12 11.1375 505.018 11.2459C504.915 11.3543 504.838 11.4835 504.79 11.6246C504.743 11.7657 504.726 11.9155 504.742 12.0636V14.6979H503.854L503.854 10.1949Z" fill="white"/>
<path d="M509.094 8.43701H509.982V14.6978H509.094V8.43701Z" fill="white"/>
<path d="M511.218 12.4442C511.189 12.1482 511.223 11.8496 511.317 11.5676C511.411 11.2855 511.563 11.0261 511.763 10.8061C511.963 10.5861 512.207 10.4104 512.478 10.2901C512.75 10.1698 513.044 10.1077 513.342 10.1077C513.639 10.1077 513.933 10.1698 514.205 10.2901C514.477 10.4104 514.72 10.5861 514.92 10.8061C515.12 11.0261 515.272 11.2855 515.366 11.5676C515.46 11.8496 515.494 12.1482 515.465 12.4442C515.494 12.7404 515.461 13.0394 515.367 13.3219C515.273 13.6045 515.122 13.8643 514.922 14.0847C514.722 14.3051 514.478 14.4812 514.206 14.6018C513.934 14.7223 513.639 14.7846 513.342 14.7846C513.044 14.7846 512.75 14.7223 512.477 14.6018C512.205 14.4812 511.961 14.3051 511.761 14.0847C511.561 13.8643 511.41 13.6045 511.316 13.3219C511.222 13.0394 511.189 12.7404 511.218 12.4442V12.4442ZM514.551 12.4442C514.551 11.4681 514.112 10.8973 513.343 10.8973C512.57 10.8973 512.136 11.4681 512.136 12.4442C512.136 13.4281 512.57 13.9945 513.343 13.9945C514.112 13.9945 514.551 13.4242 514.551 12.4442H514.551Z" fill="white"/>
<path d="M516.401 13.4242C516.401 12.6136 517.004 12.1463 518.076 12.0799L519.295 12.0096V11.6209C519.295 11.1453 518.981 10.8767 518.374 10.8767C517.877 10.8767 517.534 11.0589 517.435 11.3772H516.575C516.666 10.6038 517.393 10.1077 518.415 10.1077C519.543 10.1077 520.18 10.6697 520.18 11.6209V14.6976H519.325V14.0648H519.254C519.112 14.2918 518.911 14.4768 518.674 14.6011C518.436 14.7253 518.17 14.7842 517.902 14.7718C517.713 14.7915 517.522 14.7713 517.341 14.7126C517.16 14.6539 516.994 14.558 516.852 14.431C516.711 14.304 516.598 14.1488 516.52 13.9754C516.442 13.802 516.402 13.6142 516.401 13.4242V13.4242ZM519.295 13.0394V12.6629L518.196 12.7332C517.576 12.7747 517.294 12.9857 517.294 13.3826C517.294 13.7879 517.646 14.0238 518.129 14.0238C518.271 14.0381 518.414 14.0238 518.55 13.9817C518.686 13.9396 518.812 13.8706 518.921 13.7788C519.03 13.6869 519.119 13.5741 519.183 13.4471C519.248 13.3201 519.286 13.1814 519.295 13.0394V13.0394Z" fill="white"/>
<path d="M521.348 12.4444C521.348 11.0215 522.08 10.1201 523.217 10.1201C523.499 10.1072 523.778 10.1746 524.023 10.3145C524.267 10.4544 524.467 10.661 524.598 10.9101H524.665V8.43701H525.553V14.6978H524.702V13.9863H524.631C524.49 14.2338 524.283 14.4379 524.034 14.5764C523.785 14.7148 523.502 14.7825 523.217 14.772C522.072 14.772 521.348 13.8706 521.348 12.4444ZM522.266 12.4444C522.266 13.3995 522.716 13.9742 523.469 13.9742C524.218 13.9742 524.681 13.3912 524.681 12.4483C524.681 11.5098 524.213 10.9185 523.469 10.9185C522.721 10.9185 522.266 11.4971 522.266 12.4444H522.266Z" fill="white"/>
<path d="M529.23 12.4443C529.202 12.1483 529.236 11.8498 529.329 11.5677C529.423 11.2856 529.575 11.0263 529.775 10.8063C529.975 10.5863 530.219 10.4106 530.49 10.2903C530.762 10.17 531.056 10.1079 531.354 10.1079C531.651 10.1079 531.945 10.17 532.217 10.2903C532.489 10.4106 532.732 10.5863 532.932 10.8063C533.132 11.0263 533.284 11.2856 533.378 11.5677C533.472 11.8498 533.505 12.1483 533.477 12.4443C533.506 12.7405 533.472 13.0394 533.379 13.322C533.285 13.6045 533.134 13.8643 532.934 14.0847C532.734 14.3051 532.49 14.4813 532.218 14.6018C531.945 14.7223 531.651 14.7846 531.354 14.7846C531.056 14.7846 530.762 14.7223 530.489 14.6018C530.217 14.4813 529.973 14.3051 529.773 14.0847C529.573 13.8643 529.422 13.6045 529.328 13.322C529.235 13.0394 529.201 12.7405 529.23 12.4443V12.4443ZM532.563 12.4443C532.563 11.4682 532.125 10.8974 531.355 10.8974C530.583 10.8974 530.148 11.4682 530.148 12.4443C530.148 13.4281 530.583 13.9945 531.355 13.9945C532.125 13.9945 532.563 13.4242 532.563 12.4443Z" fill="white"/>
<path d="M534.669 10.1949H535.525V10.9102H535.591C535.704 10.6533 535.894 10.4379 536.135 10.2941C536.376 10.1503 536.655 10.0852 536.935 10.1079C537.154 10.0915 537.374 10.1245 537.579 10.2046C537.783 10.2847 537.967 10.4098 538.117 10.5707C538.267 10.7315 538.378 10.924 538.443 11.1338C538.509 11.3436 538.526 11.5654 538.494 11.7828V14.6979H537.605V12.006C537.605 11.2823 537.291 10.9224 536.633 10.9224C536.485 10.9155 536.336 10.9408 536.198 10.9966C536.06 11.0525 535.936 11.1375 535.833 11.2459C535.731 11.3543 535.654 11.4835 535.606 11.6246C535.559 11.7657 535.542 11.9155 535.558 12.0636V14.6979H534.669V10.1949Z" fill="white"/>
<path d="M543.515 9.07373V10.2153H544.491V10.9639H543.515V13.2793C543.515 13.751 543.709 13.9575 544.152 13.9575C544.265 13.9572 544.378 13.9503 544.491 13.937V14.6772C544.331 14.7058 544.169 14.721 544.007 14.7227C543.019 14.7227 542.625 14.375 542.625 13.5068V10.9638H541.911V10.2153H542.625V9.07373H543.515Z" fill="white"/>
<path d="M545.705 8.43701H546.585V10.9185H546.656C546.774 10.6591 546.969 10.4426 547.215 10.2982C547.461 10.1539 547.745 10.0888 548.029 10.1118C548.247 10.1 548.465 10.1364 548.667 10.2184C548.869 10.3004 549.051 10.4261 549.199 10.5864C549.347 10.7468 549.458 10.9378 549.524 11.146C549.59 11.3541 549.609 11.5742 549.58 11.7905V14.6978H548.69V12.0098C548.69 11.2905 548.355 10.9263 547.727 10.9263C547.574 10.9137 547.421 10.9347 547.277 10.9878C547.133 11.0408 547.003 11.1247 546.895 11.2334C546.787 11.3421 546.704 11.4732 546.652 11.6173C546.6 11.7614 546.58 11.9152 546.593 12.0679V14.6977H545.705L545.705 8.43701Z" fill="white"/>
<path d="M554.761 13.4818C554.641 13.8934 554.379 14.2494 554.022 14.4875C553.666 14.7257 553.236 14.8308 552.81 14.7846C552.513 14.7924 552.219 14.7356 551.946 14.618C551.674 14.5005 551.43 14.3251 551.232 14.104C551.034 13.8828 550.887 13.6212 550.8 13.3374C550.713 13.0536 550.689 12.7543 550.73 12.4603C550.691 12.1654 550.715 11.8655 550.801 11.5808C550.888 11.2961 551.034 11.0334 551.231 10.8103C551.428 10.5872 551.671 10.409 551.942 10.2878C552.214 10.1666 552.509 10.1052 552.806 10.1077C554.059 10.1077 554.815 10.9638 554.815 12.3778V12.6879H551.635V12.7377C551.621 12.9029 551.642 13.0693 551.696 13.226C551.75 13.3828 551.837 13.5265 551.95 13.6479C552.062 13.7694 552.2 13.8659 552.352 13.9313C552.504 13.9967 552.669 14.0295 552.834 14.0277C553.047 14.0532 553.262 14.0149 553.453 13.9177C553.644 13.8205 553.801 13.6688 553.906 13.4818L554.761 13.4818ZM551.635 12.0306H553.91C553.921 11.8795 553.9 11.7277 553.849 11.585C553.798 11.4422 553.718 11.3118 553.614 11.2019C553.509 11.092 553.383 11.0052 553.243 10.9471C553.103 10.8889 552.953 10.8606 552.801 10.8641C552.648 10.8622 552.495 10.891 552.353 10.949C552.21 11.0069 552.081 11.0928 551.972 11.2015C551.864 11.3102 551.778 11.4396 551.72 11.582C551.662 11.7244 551.633 11.8769 551.635 12.0306H551.635Z" fill="white"/>
<path d="M435 39.9999H310C307.25 39.9999 305 37.75 305 35V4.99999C305 2.25 307.25 0 310 0H435C437.75 0 440 2.25 440 4.99999V35C440 37.75 437.75 39.9999 435 39.9999Z" fill="black"/>
<path d="M435 0.799999C437.32 0.799999 439.2 2.68 439.2 4.99999V35C439.2 37.32 437.32 39.1999 435 39.1999H310C307.68 39.1999 305.8 37.32 305.8 35V4.99999C305.8 2.68 307.68 0.799999 310 0.799999H435ZM435 0H310C307.25 0 305 2.25 305 4.99999V35C305 37.75 307.25 39.9999 310 39.9999H435C437.75 39.9999 440 37.75 440 35V4.99999C440 2.25 437.75 0 435 0Z" fill="#A6A6A6"/>
<path d="M352.42 10.2399C352.42 11.0799 352.17 11.7499 351.67 12.2399C351.11 12.8299 350.37 13.1299 349.47 13.1299C348.6 13.1299 347.87 12.8299 347.26 12.2299C346.65 11.6299 346.35 10.8799 346.35 9.99991C346.35 9.1099 346.65 8.36989 347.26 7.76988C347.87 7.16988 348.6 6.86987 349.47 6.86987C349.9 6.86987 350.31 6.94987 350.7 7.11988C351.09 7.28988 351.4 7.50988 351.64 7.78988L351.11 8.31989C350.71 7.84988 350.17 7.60988 349.47 7.60988C348.84 7.60988 348.29 7.82988 347.83 8.27989C347.37 8.7199 347.14 9.2999 347.14 10.0099C347.14 10.7199 347.37 11.2999 347.83 11.7399C348.29 12.1799 348.84 12.4099 349.47 12.4099C350.14 12.4099 350.7 12.1899 351.15 11.7399C351.44 11.4499 351.61 11.0399 351.65 10.5199H349.47V9.79991H352.38C352.4 9.94991 352.42 10.0999 352.42 10.2399Z" fill="white" stroke="white" stroke-width="0.2" stroke-miterlimit="10"/>
<path d="M357.03 7.73976H354.3V9.63976H356.76V10.3598H354.3V12.2598H357.03V12.9998H353.53V6.99976H357.03V7.73976V7.73976Z" fill="white" stroke="white" stroke-width="0.2" stroke-miterlimit="10"/>
<path d="M360.28 12.9998H359.51V7.73976H357.83V6.99976H361.95V7.73976H360.27V12.9998H360.28Z" fill="white" stroke="white" stroke-width="0.2" stroke-miterlimit="10"/>
<path d="M364.94 12.9998V6.99976H365.71V12.9998H364.94Z" fill="white" stroke="white" stroke-width="0.2" stroke-miterlimit="10"/>
<path d="M369.13 12.9998H368.36V7.73976H366.68V6.99976H370.8V7.73976H369.12V12.9998H369.13Z" fill="white" stroke="white" stroke-width="0.2" stroke-miterlimit="10"/>
<path d="M378.61 12.2199C378.02 12.8299 377.29 13.1299 376.41 13.1299C375.53 13.1299 374.8 12.8299 374.21 12.2199C373.62 11.6099 373.33 10.8699 373.33 9.99991C373.33 9.1299 373.62 8.37989 374.21 7.77988C374.8 7.16988 375.53 6.86987 376.41 6.86987C377.28 6.86987 378.01 7.16988 378.61 7.77988C379.2 8.38989 379.5 9.1299 379.5 9.99991C379.49 10.8799 379.2 11.6199 378.61 12.2199ZM374.78 11.7199C375.22 12.1699 375.77 12.3899 376.41 12.3899C377.05 12.3899 377.6 12.1699 378.04 11.7199C378.48 11.2699 378.71 10.6999 378.71 9.99991C378.71 9.2999 378.49 8.7299 378.04 8.27989C377.6 7.82988 377.05 7.60988 376.41 7.60988C375.77 7.60988 375.22 7.82988 374.78 8.27989C374.34 8.7299 374.11 9.2999 374.11 9.99991C374.11 10.6999 374.34 11.2699 374.78 11.7199Z" fill="white" stroke="white" stroke-width="0.2" stroke-miterlimit="10"/>
<path d="M380.58 12.9998V6.99976H381.52L384.44 11.6698H384.47L384.44 10.5098V6.99976H385.21V12.9998H384.41L381.36 8.10976H381.33L381.36 9.26976V12.9998H380.58Z" fill="white" stroke="white" stroke-width="0.2" stroke-miterlimit="10"/>
<path d="M373.14 21.7501C370.79 21.7501 368.87 23.5401 368.87 26.0001C368.87 28.4501 370.79 30.2501 373.14 30.2501C375.49 30.2501 377.41 28.4501 377.41 26.0001C377.41 23.5401 375.49 21.7501 373.14 21.7501ZM373.14 28.5801C371.85 28.5801 370.74 27.5201 370.74 26.0001C370.74 24.4701 371.85 23.4201 373.14 23.4201C374.43 23.4201 375.54 24.4701 375.54 26.0001C375.54 27.5201 374.42 28.5801 373.14 28.5801ZM363.82 21.7501C361.47 21.7501 359.55 23.5401 359.55 26.0001C359.55 28.4501 361.47 30.2501 363.82 30.2501C366.17 30.2501 368.09 28.4501 368.09 26.0001C368.09 23.5401 366.17 21.7501 363.82 21.7501ZM363.82 28.5801C362.53 28.5801 361.42 27.5201 361.42 26.0001C361.42 24.4701 362.53 23.4201 363.82 23.4201C365.11 23.4201 366.22 24.4701 366.22 26.0001C366.22 27.5201 365.11 28.5801 363.82 28.5801ZM352.74 23.0601V24.8601H357.06C356.93 25.8701 356.59 26.6201 356.08 27.1301C355.45 27.7601 354.47 28.4501 352.75 28.4501C350.09 28.4501 348.01 26.3101 348.01 23.6501C348.01 20.9901 350.09 18.8501 352.75 18.8501C354.18 18.8501 355.23 19.4101 356 20.1401L357.27 18.8701C356.19 17.8401 354.76 17.05 352.74 17.05C349.1 17.05 346.04 20.0101 346.04 23.6601C346.04 27.3001 349.1 30.2701 352.74 30.2701C354.71 30.2701 356.19 29.6301 357.35 28.4201C358.54 27.2301 358.91 25.5501 358.91 24.2001C358.91 23.7801 358.88 23.3901 358.81 23.0701H352.74V23.0601ZM398.05 24.4601C397.7 23.5101 396.62 21.7501 394.41 21.7501C392.22 21.7501 390.4 23.4701 390.4 26.0001C390.4 28.3801 392.2 30.2501 394.62 30.2501C396.57 30.2501 397.7 29.0601 398.16 28.3701L396.71 27.4001C396.23 28.1101 395.57 28.5801 394.62 28.5801C393.67 28.5801 392.99 28.1401 392.56 27.2901L398.25 24.9401L398.05 24.4601ZM392.25 25.8801C392.2 24.2401 393.52 23.4001 394.47 23.4001C395.21 23.4001 395.84 23.7701 396.05 24.3001L392.25 25.8801ZM387.63 30.0001H389.5V17.5001H387.63V30.0001ZM384.57 22.7001H384.5C384.08 22.2001 383.28 21.7501 382.26 21.7501C380.13 21.7501 378.18 23.6201 378.18 26.0201C378.18 28.4001 380.13 30.2601 382.26 30.2601C383.27 30.2601 384.08 29.8101 384.5 29.2901H384.56V29.9001C384.56 31.5301 383.69 32.4001 382.29 32.4001C381.15 32.4001 380.44 31.5801 380.15 30.8901L378.52 31.5701C378.99 32.7001 380.23 34.0802 382.29 34.0802C384.48 34.0802 386.33 32.7901 386.33 29.6501V22.0101H384.56V22.7001H384.57ZM382.42 28.5801C381.13 28.5801 380.05 27.5001 380.05 26.0201C380.05 24.5201 381.13 23.4301 382.42 23.4301C383.69 23.4301 384.69 24.5301 384.69 26.0201C384.7 27.5001 383.7 28.5801 382.42 28.5801ZM406.81 17.5001H402.34V30.0001H404.21V25.2601H406.82C408.89 25.2601 410.92 23.7601 410.92 21.3801C410.92 19.0001 408.87 17.5001 406.81 17.5001ZM406.85 23.5201H404.2V19.2301H406.85C408.25 19.2301 409.04 20.3901 409.04 21.3701C409.04 22.3501 408.25 23.5201 406.85 23.5201ZM418.39 21.7301C417.04 21.7301 415.64 22.3301 415.06 23.6401L416.72 24.3301C417.07 23.6401 417.73 23.4101 418.42 23.4101C419.38 23.4101 420.37 23.9901 420.38 25.0201V25.1501C420.04 24.9601 419.32 24.6701 418.43 24.6701C416.64 24.6701 414.83 25.6501 414.83 27.4801C414.83 29.1501 416.29 30.2301 417.93 30.2301C419.18 30.2301 419.88 29.6701 420.31 29.0101H420.37V29.9801H422.17V25.1901C422.18 22.9701 420.52 21.7301 418.39 21.7301ZM418.16 28.5801C417.55 28.5801 416.7 28.2701 416.7 27.5201C416.7 26.5601 417.76 26.1901 418.68 26.1901C419.5 26.1901 419.89 26.3701 420.38 26.6101C420.24 27.7601 419.24 28.5801 418.16 28.5801ZM428.74 22.0001L426.6 27.4201H426.54L424.32 22.0001H422.31L425.64 29.5801L423.74 33.7901H425.69L430.82 22.0001H428.74ZM411.94 30.0001H413.81V17.5001H411.94V30.0001Z" fill="white"/>
<path d="M315.44 7.53997C315.15 7.84997 314.98 8.32997 314.98 8.93997V31.0599C314.98 31.6799 315.15 32.1599 315.44 32.4599L315.51 32.5299L327.9 20.1499V19.9999V19.8499L315.51 7.46997L315.44 7.53997Z" fill="url(#paint0_linear_53912_155)"/>
<path d="M332.03 24.2799L327.9 20.1499V19.9999V19.8499L332.03 15.72L332.12 15.77L337.01 18.55C338.41 19.3399 338.41 20.6399 337.01 21.4399L332.12 24.2199L332.03 24.2799Z" fill="url(#paint1_linear_53912_155)"/>
<path d="M332.12 24.22L327.9 20L315.44 32.46C315.9 32.95 316.66 33.01 317.52 32.52L332.12 24.22Z" fill="url(#paint2_linear_53912_155)"/>
<path d="M332.12 15.78L317.51 7.47999C316.65 6.98999 315.89 7.04999 315.43 7.53999L327.9 20L332.12 15.78Z" fill="url(#paint3_linear_53912_155)"/>
<path opacity="0.2" d="M332.03 24.1299L317.51 32.3798C316.7 32.8398 315.97 32.8098 315.51 32.3898L315.44 32.4598L315.51 32.5298C315.98 32.9498 316.7 32.9798 317.51 32.5198L332.12 24.2199L332.03 24.1299Z" fill="black"/>
<path opacity="0.12" d="M315.44 32.3201C315.15 32.0101 314.98 31.5302 314.98 30.9202V31.0702C314.98 31.6901 315.15 32.1701 315.44 32.4701L315.51 32.4001L315.44 32.3201Z" fill="black"/>
<path opacity="0.12" d="M337.01 21.3L332.02 24.1301L332.11 24.2201L337 21.44C337.7 21.04 338.05 20.52 338.05 20C338 20.47 337.65 20.94 337.01 21.3Z" fill="black"/>
<path opacity="0.25" d="M317.51 7.61994L337.01 18.7C337.64 19.06 338 19.52 338.06 20C338.06 19.48 337.71 18.95 337.01 18.56L317.51 7.47994C316.11 6.68994 314.97 7.34994 314.97 8.94994V9.09994C314.97 7.48994 316.12 6.82994 317.51 7.61994Z" fill="white"/>
<defs>
<linearGradient id="paint0_linear_53912_155" x1="326.8" y1="8.70967" x2="310.017" y2="25.4921" gradientUnits="userSpaceOnUse">
<stop stop-color="#00A0FF"/>
<stop offset="0.00657445" stop-color="#00A1FF"/>
<stop offset="0.2601" stop-color="#00BEFF"/>
<stop offset="0.5122" stop-color="#00D2FF"/>
<stop offset="0.7604" stop-color="#00DFFF"/>
<stop offset="1" stop-color="#00E3FF"/>
</linearGradient>
<linearGradient id="paint1_linear_53912_155" x1="338.834" y1="20.0013" x2="314.638" y2="20.0013" gradientUnits="userSpaceOnUse">
<stop stop-color="#FFE000"/>
<stop offset="0.4087" stop-color="#FFBD00"/>
<stop offset="0.7754" stop-color="#FFA500"/>
<stop offset="1" stop-color="#FF9C00"/>
</linearGradient>
<linearGradient id="paint2_linear_53912_155" x1="329.827" y1="22.2961" x2="307.069" y2="45.0544" gradientUnits="userSpaceOnUse">
<stop stop-color="#FF3A44"/>
<stop offset="1" stop-color="#C31162"/>
</linearGradient>
<linearGradient id="paint3_linear_53912_155" x1="312.297" y1="0.176203" x2="322.46" y2="10.3387" gradientUnits="userSpaceOnUse">
<stop stop-color="#32A071"/>
<stop offset="0.0685" stop-color="#2DA771"/>
<stop offset="0.4762" stop-color="#15CF74"/>
<stop offset="0.8009" stop-color="#06E775"/>
<stop offset="1" stop-color="#00F076"/>
</linearGradient>
</defs>
</svg>
